<mxfile host="65bd71144e">
    <diagram id="jhs0M1rHPWUWwOHxC4OX" name="ページ1">
        <mxGraphModel dx="1996" dy="658" grid="1" gridSize="10" guides="1" tooltips="1" connect="1" arrows="1" fold="1" page="1" pageScale="1" pageWidth="827" pageHeight="1169" math="0" shadow="0">
            <root>
                <mxCell id="0"/>
                <mxCell id="1" parent="0"/>
                <mxCell id="3" value="就職作品" style="fillColor=#4DA1F5;strokeColor=none;shadow=1;gradientColor=none;fontSize=14;align=left;spacingLeft=50;fontColor=#ffffff;" parent="1" vertex="1">
                    <mxGeometry x="-120" y="160" width="1710" height="40" as="geometry"/>
                </mxCell>
                <mxCell id="4" value="&lt;b&gt;Google &lt;/b&gt;Cloud Platform" style="fillColor=#F6F6F6;strokeColor=none;shadow=0;gradientColor=none;fontSize=14;align=left;spacing=10;fontColor=#717171;9E9E9E;verticalAlign=top;spacingTop=-4;fontStyle=0;spacingLeft=40;html=1;" parent="1" vertex="1">
                    <mxGeometry x="-120" y="200" width="1710" height="770" as="geometry"/>
                </mxCell>
                <mxCell id="5" value="" style="shape=mxgraph.gcp2.google_cloud_platform;fillColor=#F6F6F6;strokeColor=none;shadow=0;gradientColor=none;" parent="4" vertex="1">
                    <mxGeometry width="23" height="20" relative="1" as="geometry">
                        <mxPoint x="20" y="10" as="offset"/>
                    </mxGeometry>
                </mxCell>
                <mxCell id="8" value="machine learning" style="points=[[0,0,0],[0.25,0,0],[0.5,0,0],[0.75,0,0],[1,0,0],[1,0.25,0],[1,0.5,0],[1,0.75,0],[1,1,0],[0.75,1,0],[0.5,1,0],[0.25,1,0],[0,1,0],[0,0.75,0],[0,0.5,0],[0,0.25,0]];rounded=1;absoluteArcSize=1;arcSize=2;html=1;strokeColor=none;gradientColor=none;shadow=0;dashed=0;fontSize=12;fontColor=#9E9E9E;align=left;verticalAlign=top;spacing=10;spacingTop=-4;fillColor=#E1F5FE;" parent="4" vertex="1">
                    <mxGeometry x="1320" y="456" width="290" height="199" as="geometry"/>
                </mxCell>
                <mxCell id="7" value="DATASTORE" style="points=[[0,0,0],[0.25,0,0],[0.5,0,0],[0.75,0,0],[1,0,0],[1,0.25,0],[1,0.5,0],[1,0.75,0],[1,1,0],[0.75,1,0],[0.5,1,0],[0.25,1,0],[0,1,0],[0,0.75,0],[0,0.5,0],[0,0.25,0]];rounded=1;absoluteArcSize=1;arcSize=2;html=1;strokeColor=none;gradientColor=none;shadow=0;dashed=0;fontSize=12;fontColor=#9E9E9E;align=left;verticalAlign=top;spacing=10;spacingTop=-4;fillColor=#EFEBE9;" parent="4" vertex="1">
                    <mxGeometry x="1020" y="115" width="590" height="195" as="geometry"/>
                </mxCell>
                <mxCell id="6" value="server side" style="points=[[0,0,0],[0.25,0,0],[0.5,0,0],[0.75,0,0],[1,0,0],[1,0.25,0],[1,0.5,0],[1,0.75,0],[1,1,0],[0.75,1,0],[0.5,1,0],[0.25,1,0],[0,1,0],[0,0.75,0],[0,0.5,0],[0,0.25,0]];rounded=1;absoluteArcSize=1;arcSize=2;html=1;strokeColor=none;gradientColor=none;shadow=0;dashed=0;fontSize=12;fontColor=#9E9E9E;align=left;verticalAlign=top;spacing=10;spacingTop=-4;fillColor=#F3E5F5;" parent="4" vertex="1">
                    <mxGeometry x="670" y="115" width="250" height="455" as="geometry"/>
                </mxCell>
                <mxCell id="12" value="cron" style="points=[[0,0,0],[0.25,0,0],[0.5,0,0],[0.75,0,0],[1,0,0],[1,0.25,0],[1,0.5,0],[1,0.75,0],[1,1,0],[0.75,1,0],[0.5,1,0],[0.25,1,0],[0,1,0],[0,0.75,0],[0,0.5,0],[0,0.25,0]];rounded=1;absoluteArcSize=1;arcSize=2;html=1;strokeColor=none;gradientColor=none;shadow=0;dashed=0;fontSize=12;fontColor=#9E9E9E;align=left;verticalAlign=top;spacing=10;spacingTop=-4;fillColor=#FFF8E1;" parent="4" vertex="1">
                    <mxGeometry x="1020" y="460" width="250" height="180" as="geometry"/>
                </mxCell>
                <mxCell id="15" value="" style="strokeColor=#dddddd;shadow=1;strokeWidth=1;rounded=1;absoluteArcSize=1;arcSize=2;" parent="4" vertex="1">
                    <mxGeometry x="1090" y="510" width="150" height="60" as="geometry"/>
                </mxCell>
                <mxCell id="16" value="&lt;font color=&quot;#000000&quot;&gt;Name&lt;/font&gt;&lt;br&gt;Cloud Functions" style="dashed=0;connectable=0;html=1;fillColor=#5184F3;strokeColor=none;shape=mxgraph.gcp2.hexIcon;prIcon=cloud_functions;part=1;labelPosition=right;verticalLabelPosition=middle;align=left;verticalAlign=middle;spacingLeft=5;fontColor=#999999;fontSize=12;" parent="15" vertex="1">
                    <mxGeometry y="0.5" width="44" height="39" relative="1" as="geometry">
                        <mxPoint x="5" y="-19.5" as="offset"/>
                    </mxGeometry>
                </mxCell>
                <mxCell id="17" value="" style="strokeColor=#dddddd;shadow=1;strokeWidth=1;rounded=1;absoluteArcSize=1;arcSize=2;" parent="4" vertex="1">
                    <mxGeometry x="730" y="270" width="130" height="60" as="geometry"/>
                </mxCell>
                <mxCell id="18" value="&lt;font color=&quot;#000000&quot;&gt;API&lt;/font&gt;&lt;br&gt;App Engine" style="dashed=0;connectable=0;html=1;fillColor=#5184F3;strokeColor=none;shape=mxgraph.gcp2.hexIcon;prIcon=app_engine;part=1;labelPosition=right;verticalLabelPosition=middle;align=left;verticalAlign=middle;spacingLeft=5;fontColor=#999999;fontSize=12;" parent="17" vertex="1">
                    <mxGeometry y="0.5" width="44" height="39" relative="1" as="geometry">
                        <mxPoint x="5" y="-19.5" as="offset"/>
                    </mxGeometry>
                </mxCell>
                <mxCell id="19" value="" style="strokeColor=#dddddd;shadow=1;strokeWidth=1;rounded=1;absoluteArcSize=1;arcSize=2;" vertex="1" parent="4">
                    <mxGeometry x="1350" y="170" width="160" height="60" as="geometry"/>
                </mxCell>
                <mxCell id="20" value="neo4j&lt;br&gt;Compute Engine" style="dashed=0;connectable=0;html=1;fillColor=#5184F3;strokeColor=none;shape=mxgraph.gcp2.hexIcon;prIcon=compute_engine;part=1;labelPosition=right;verticalLabelPosition=middle;align=left;verticalAlign=middle;spacingLeft=5;fontColor=#999999;fontSize=12;" vertex="1" parent="19">
                    <mxGeometry y="0.5" width="44" height="39" relative="1" as="geometry">
                        <mxPoint x="5" y="-19.5" as="offset"/>
                    </mxGeometry>
                </mxCell>
                <mxCell id="21" value="frontend" style="points=[[0,0,0],[0.25,0,0],[0.5,0,0],[0.75,0,0],[1,0,0],[1,0.25,0],[1,0.5,0],[1,0.75,0],[1,1,0],[0.75,1,0],[0.5,1,0],[0.25,1,0],[0,1,0],[0,0.75,0],[0,0.5,0],[0,0.25,0]];rounded=1;absoluteArcSize=1;arcSize=2;html=1;strokeColor=none;gradientColor=none;shadow=0;dashed=0;fontSize=12;fontColor=#9E9E9E;align=left;verticalAlign=top;spacing=10;spacingTop=-4;fillColor=#F1F8E9;" vertex="1" parent="4">
                    <mxGeometry x="120" y="130" width="490" height="430" as="geometry"/>
                </mxCell>
                <mxCell id="56" style="edgeStyle=none;html=1;entryX=0.825;entryY=0.5;entryDx=0;entryDy=0;entryPerimeter=0;" edge="1" parent="4" source="22" target="25">
                    <mxGeometry relative="1" as="geometry">
                        <mxPoint x="290" y="299" as="targetPoint"/>
                    </mxGeometry>
                </mxCell>
                <mxCell id="89" style="edgeStyle=none;html=1;entryX=0;entryY=0.5;entryDx=0;entryDy=0;" edge="1" parent="4" source="22" target="17">
                    <mxGeometry relative="1" as="geometry"/>
                </mxCell>
                <mxCell id="22" value="" style="strokeColor=#dddddd;shadow=1;strokeWidth=1;rounded=1;absoluteArcSize=1;arcSize=2;" vertex="1" parent="4">
                    <mxGeometry x="440" y="270" width="140" height="60" as="geometry"/>
                </mxCell>
                <mxCell id="23" value="&lt;font color=&quot;#000000&quot;&gt;client app&lt;/font&gt;&lt;br&gt;Cloud Storage" style="dashed=0;connectable=0;html=1;fillColor=#5184F3;strokeColor=none;shape=mxgraph.gcp2.hexIcon;prIcon=cloud_storage;part=1;labelPosition=right;verticalLabelPosition=middle;align=left;verticalAlign=middle;spacingLeft=5;fontColor=#999999;fontSize=12;" vertex="1" parent="22">
                    <mxGeometry y="0.5" width="44" height="39" relative="1" as="geometry">
                        <mxPoint x="5" y="-19.5" as="offset"/>
                    </mxGeometry>
                </mxCell>
                <mxCell id="25" value="Cloud&#10;CDN" style="html=1;fillColor=#5184F3;strokeColor=none;verticalAlign=top;labelPosition=center;verticalLabelPosition=bottom;align=center;spacingTop=-6;fontSize=11;fontStyle=1;fontColor=#999999;shape=mxgraph.gcp2.hexIcon;prIcon=cloud_cdn" vertex="1" parent="4">
                    <mxGeometry x="220" y="270" width="66" height="58.5" as="geometry"/>
                </mxCell>
                <mxCell id="29" value="" style="shape=image;verticalLabelPosition=bottom;labelBackgroundColor=#ffffff;verticalAlign=top;aspect=fixed;imageAspect=0;image=data:image/png,iVBORw0KGgoAAAANSUhEUgAAAPgAAADLCAMAAAB04a46AAAAilBMVEX///9h2vta2fuz7P35/v9Y2Pum6v1o3Pti2/ug6P31+/yL4/xw3vvh9/78/v/n+f6a4PTv+/594PzV9f6W5vzJ8v7C8P257v3R9P7d9/6B4fyP5PzF8f207f3s+v924Pze8PWj4vWJ2/F52fTX5upt0OzH6vV70emR2O3l8fOW0eLT7vaEzeFczexr5OZNAAAPKUlEQVR4nO1d6ZqjuBW1BELsDPtWNulJ0plJZ97/9XKvsLEEEq5ebMN8nF9VmHLpIOnq7pxOBw4cOHDgwIEDBw4cOHDgwIEDBw4cOHDgwIEDBw4ceCXsi//ZW/0kfeZIXonW60KXZ4HTPGJ/Kb2OE7i1vrxkZE9F7HBGBRjJqrXZbLyQ3hDWLxvgkxANQDvMAAMB7tQzzWWDN1I+4J0c7gz2PenpAGTOlxTRekCIDlWsue9SuPBZZiXizqgghAa6+/aCuIDpzqdfE0E9aBf31Xi9+7DvFyhhe17tJSVuLl+4eDCz7lmVclGPsy3RBjhwZb/iPc4oPc+ulbiXe5n5RwjTW8y2tA17pHz2+J6GlmimLXaIvP5thxHKl8s6d2n25OE9DzWljubyBzDn1+n0A0rosNz1JzugbvTU0T0RBWUaSrCpO1julfgpA96OVn7DU/t45uCeCNinXP9JCuLMrUfexCC9S/1y2QP8kHamz0Bq0/4LN/M+JXDDTo/yCzETP9WgowBt0phusDkNbNOH20bDVoiDAADaxDJ+Hoe7Jf5B14g3SJybBfeeif/UjJ92THxtxi0q9jjNjXfsl3i5MuPAm/QOqLShabHveKkn5hlvwFaBVZ52YIsY/DI7lurmczwCM1Sc32kAp7WeHhyGeyUOmpueOCjoN60s5WLqNcj3q8AA8VD7Aejwxe3nll/V9jnKpUm7G4BGrnMmAKUwkX/TmmHVjg1yizLNaQWWtqKo1qDZagTcmVKjOrt1VFTjOPMHSgv5QhzMLoxXe+ru1tEKc7tk5IHm8pt8IUZfxML09jMa7lS2CZGtnkhxGhUMNdXAuaMjQndNUoUnCHXvtaP9hbCzSYrZUWk5Xj9woaETKkNcITzrPefcRFf+hUHY7wMg1os0jfK6DyljV46MLCA+EGEmRslg5VFSuYR8e/fwfxj/4MAnDDmhQJq4riDp1m00R26N0+6OS8Hl+If0y7vH/4NI6vC2rHnnOR9t6yA9/eF8xht/axvL60N8TuIv+3J3MYU4qQP3unnDKrke0z6Ib4MBHqN5Pt4Wp601XB8Z9/bFPS+42LEu7Gf6dboMSprR7oiA+J1ji4ueiPhy5iSGP9ka0o9OyLGiiv6EvcuncV9Cys0kQM27u5PhIBwSP7c6DKKyIN/Bie7XGU4WdyIx2I6SSRGHLb4SAfU7yicFt6SjLLBzET92C7OjZiNoMpztYNqZzV0piwgt1mYuJ5OuFgdsuH1DYg244otNL/i0wNnupelJs5sFCjPK1oNh1mSIRlxa9ie7GkAqhs1213ubMcIy1aYqaDjO3ZnRYP3PfX6TAWCSKkG3FCOsxNmqQ6Z0cXSzeSnZeIIloWyEI+wkT1Qq1c1MyxaJIKmIqm5zuVdwdIUL9SQlNEMS1sxETc8BJ2FQy5Z4mlERYYgYXUhBG/3R3RYN1RwG1mscCoVYtolLQ2l6U48I7YyyUDZFGiam3GO6Y68J6fgMtwXMb/J0nuKWUy+2C8WDlmR0sk+IzDxA50zO9dKg4aZY+jvhmKYjDuAYBmmf3SfcDibeCOkQaF3KC+Cnt0jhdN+cOwpll+GwqkSwSB7xh8KbDpI6jv4ZYgwyWMrz2wTO5vyFVNiYnTTgQiFOZEnW0tkF9asySRHcBjJKjSNCY1uecNuduSHkHe0hc2O2b8U25mz3YbTGQzaBKZcdhxGdEe+kD3Owywbj/7noHLLvROquEPdDNSekZCvEYWOsJbhx5eb3I/2eGc/XiK/PeLq1GY9hUo3Ez7M9ns6X+nyPc6Pkhj2+Md+rR42i2B+QuOx66R5JdVPQzAepvjF9HVNPDd4xkeWjTHmtnuOyfjqe44aQOZgDa1k17wHopAax01M6DMqnquYmzy9qbgE3hQsTssEIagRCydNNVASad5oWSoQ0Ge7MqSU9r566+akN9RIME0eKjSlugJrpXUugxOeLfJgkuEaOqJLw1YwBM0trnV2AN9+is9lBg3mhvtl8VK8ddZXGTSDCLJ7MEDRS12SPn0rYAXyTPkeRcr/wRORXJTMNZ+H/OCrLRp3Y6hYhHRTVXkA4nzbJ+ySKLNAJrlxz2NXnBkfwg7ivz2+GmkWZKt7KAR7qhiuyog6d4I60Ef2OXemip2J95OfJO9VyJj+kSDhvvS3u7wli0rnT3lZqQ6Y0GJBcq371yL0nSRV3I/1S9i58Z7c1D8QcqYOFkjyrx4F3knpSMLKmbxb0HknNbz8nVoizndWfrsp9Hy4ORgxZ6DSXFGNn0/pO+M3HrkPjSsvbFrGzSykq9FhX7oA2Ij1nrgjwi0jxPTRQruS1pFxWwyM44V0u0gTCYuuLXEaaY2nw1faKpqOJm08kOAtvOzxOm9GMwbrL+rIp+/sTiJuCj8ypm3lWnqKuDRaJtiALoxGYu25Hldfz0ecO6pC1MQfbJxF/46iTjokt7tAXIjVk+Bpd7FiaxthOWks8orDv+DUPCpn/vj29/LP4ndKsaXMrcCljjN3WLz6EO4KQ3HYF3kSGos5zR0ml2BviaywME/tKyym6MHSvq5/dcSXt8qH3HKu5BhJ3nec2z2y0k6QRwSMaelNioyc2AO1btStGbspj3wMiTS6rjwJbCYf4AyFsEY3wsx1XE5e6sv8IjudevmB3OoeS3VN308r5GhxtvnpF1Tq7Gla+xnrZc766vkIhdigN7jpoQ/RazY4rFEw1KXEnCa4kNDimd1yTYqxCugxTOgD2gvjbVSGZ686ayY3kGbM80/3Wna1UGtagvuEOthgd/n6Vhmu1pSDgeHOxXJPRsuva0vVqYgZaKjOHyfZcTfxz9eN7nvFV4rkwRFf8rvslvt4jQtRprIRGdjzjq11BqjFkaO5ktWOpvtYH5kwJ5f9EA9WkkO+4D4ydmbJZYssF9STxMT3VNcj1HXf+QS+KdiX7HiVMBNMj0FgN9Ro77vUEY2c695Fge+sYgH6JQmfDFZtLYvw8Wle3TSv0pE4PJC1Ai+mW6lvCV7K+to44o4vCwqRglGYzRwRl9VyA9+Y0qh2gZjRUbBC7xpDiLOALIo6QXs0RyN15Jceu4Hdgdd5ZxjXsbjYsZFZaiAI9SZlJQsr26oYQaOGkzsbWw35aYdoA18b3c1Gl15e+WPF+FRqTx/aCGiNCnVOfvW6M+BqsUF/sARr257rGTkhsk3U334NWlIeKEluY7ZXsHbsK7o0EXG15y77gl53gwoP6gbSycycTQcNw7QHtCUme59HnDA6/zfNk37v7wIEDBw5sH+miec3u0rF+CNHAF+icPTTt+EnU2kZNdPtNO34W1q0bldqcC3tZvWE08etWmqiPzRzrDqcbqXevZ970r+uRIho1zAynpBiZv9z7z+kyWepZQOKLBGS7xq2udag+E75uLM8CEtc85Q+X6F6Q8Vz45P3Exwjgi/3/myCeoNDrNR88EZsgPlY/v2oUI9JNEG9gl7uvlev/ouR1rlgj8Ygviad1kA2AzDMV09i50423FMaX2k3fEpzv8ZfL1+rLvzEF/Pe6qqoXnObfQTyRXlhHskWICHCpJw8sehgt3amQotv5pity70rdnjoHCRVieP55YiTezolbLsOmjUOXcSp6281Dn3E99nWckvXlN6PdgG/GulYujAUbo7JwUU0GcyeWXwYjcczskFo72Fj5z70Gp8Ju6w5+c9XTDjsuwy191eR5UxWu+G3GPPYE27CAm5q6xy6+1/zP/trkFb4WEDzfCW8kHqhSHUuqszsN35o1S8AaWxi0M3mS8wAbes4Cw46Y5FuXzjhC3dgVoRi/zb/+BxfDH/Dc2hdoTibiLQ77Xo2A863WJmCXEyWJEZvWKfLsvFB7LfxSpVNayaWS+j83INX9QHmtEXbhKmbLD3uSyalAsTV/q2OBXTGkayg25q0RIkdaRu8/x+Me1+RUKpwOlAwLKf5Bif7tZzcksG3lFgmiWeHK7n058cU/uwi79D5mbHizTGWyA0q9tZWJj0+SA9gRxpjhi3g58Zk9fqlFiw+pSizUz1RD1975dP3yKbcVk3/Web2aOLC6F405XkbkAxbRMENr6eyB46CWXzKADaLI6tZ4OfFlP3zMPb/fg4eQdmaxCGftyxXi2ALM1MhvxBuIz7ysXKnnx7Y+S9GGgL2vpgIlpYfFpU45HucKcWwxsk7rDcSvDvVReeKV2lYWSwm51uKA011+FUxShGORKWVctBJRiKOkW3dmvZ74lygR+NahhvHH7JZLiMXyVbmA46rtA0IqOsc7luN0lHn+6YtMvHvYkfPlUv2uZIh8zHmufesuxMAkDqQszRp/Da97JI48Hv73LzIjvv72iHee49iLb/7Pv43WYqjF1E+2FU0UpGeW4PLZNnH5SEIJzlSzC88h+uWRvRQstHnhvdr0UpeJY80gHZTFjr1T6eoBfBqfzrxTl99vW7ipunrJ5u5VPM7Yozrgkmh0/laecWu5JGZ4s5HSzzpRjrb4o9AOng4Lf0sqEy9Rbq4a2m8mjs42VX1HlfVRh2TYz8vkZGzJeldZyUrTSoF3m6W16oM4oZFiev/NBI+SZZM+hXjsPfIzvJu4aPqgLHY0Sx90gMfTYCEHlKUunDrmVzafRuIv606rc0RE7qzFKMp1tmp6Cx/NYrZy9RVwKNfXdjkSX3NU/FJoPTDCVpWfPfZPX/CKW+mME12JZ3JAWOAScSE9epV5XtyVhpg/8FT8SmiJ+9n8ReKoizD17R6pQ13pFo8tvshSFJiTcMSqznbbIUw6DDrdmfgk6H1uOZ2tulg4hrvp/Th2UoNJIvdGSdBEkYsVEuGvVN926Ajlt2hF3YKdfogHfCcuWrFXfmynzw/aGbysPc6NXENiO8IkybyP5lteWoGoTlCWLXZLoNPLZFKLh//7a048rkfvTtZ7lheIFs7yfy+FjZwFQfb8tH44u5jGrYR+Veoq+63pRMyLXaM/lGazvIE8E2ZpUVd1MTACjw3MUjZ7q93YuHby9SieHuyRc7MDn55udulC7etp8oyHs2a0vpVJpRbZx0I+pw6/fcyLaPzybC6s/CqbAouEzF59dumun3QviJeatpNtL8+vpHSCLuu8utQPLMXPu95qbitV++UXcVfgVPnybGsc/Pt8g+XWNmDt81j3wL7nrk/9/YEDBw4cOHDgwIEDBw4cOHDgwIEDBw4cOHDgwIEDj/B/PmOy+KLgHaUAAAAASUVORK5CYII=;" vertex="1" parent="4">
                    <mxGeometry x="503.03" y="207" width="76.97" height="63" as="geometry"/>
                </mxCell>
                <mxCell id="55" style="edgeStyle=none;html=1;entryX=0.175;entryY=0.5;entryDx=0;entryDy=0;entryPerimeter=0;" edge="1" parent="4" source="34" target="54">
                    <mxGeometry relative="1" as="geometry"/>
                </mxCell>
                <mxCell id="34" value="Cloud Source&#10;Repositories" style="html=1;fillColor=#5184F3;strokeColor=none;verticalAlign=top;labelPosition=center;verticalLabelPosition=bottom;align=center;spacingTop=-6;fontSize=11;fontStyle=1;fontColor=#999999;shape=mxgraph.gcp2.hexIcon;prIcon=placeholder" vertex="1" parent="4">
                    <mxGeometry x="110" y="655" width="66" height="58.5" as="geometry"/>
                </mxCell>
                <mxCell id="104" style="edgeStyle=orthogonalEdgeStyle;html=1;entryX=0.5;entryY=1;entryDx=0;entryDy=0;strokeColor=#009900;" edge="1" parent="4" source="54" target="22">
                    <mxGeometry relative="1" as="geometry"/>
                </mxCell>
                <mxCell id="106" style="edgeStyle=orthogonalEdgeStyle;html=1;entryX=0.5;entryY=1;entryDx=0;entryDy=0;strokeColor=#009900;" edge="1" parent="4" source="54" target="57">
                    <mxGeometry relative="1" as="geometry"/>
                </mxCell>
                <mxCell id="107" style="edgeStyle=orthogonalEdgeStyle;html=1;entryX=0.5;entryY=1;entryDx=0;entryDy=0;strokeColor=#009900;" edge="1" parent="4" source="54" target="17">
                    <mxGeometry relative="1" as="geometry"/>
                </mxCell>
                <mxCell id="108" style="edgeStyle=orthogonalEdgeStyle;html=1;entryX=0.5;entryY=1;entryDx=0;entryDy=0;strokeColor=#009900;" edge="1" parent="4" source="54" target="15">
                    <mxGeometry relative="1" as="geometry"/>
                </mxCell>
                <mxCell id="54" value="Cloud Build" style="html=1;fillColor=#5184F3;strokeColor=none;verticalAlign=top;labelPosition=center;verticalLabelPosition=bottom;align=center;spacingTop=-6;fontSize=11;fontStyle=1;fontColor=#999999;shape=mxgraph.gcp2.hexIcon;prIcon=container_builder" vertex="1" parent="4">
                    <mxGeometry x="350" y="655" width="66" height="58.5" as="geometry"/>
                </mxCell>
                <mxCell id="57" value="" style="strokeColor=#dddddd;shadow=1;strokeWidth=1;rounded=1;absoluteArcSize=1;arcSize=2;" vertex="1" parent="4">
                    <mxGeometry x="730" y="418.5" width="130" height="60" as="geometry"/>
                </mxCell>
                <mxCell id="58" value="&lt;font color=&quot;#000000&quot;&gt;managerAPI&lt;/font&gt;&lt;br&gt;App Engine" style="dashed=0;connectable=0;html=1;fillColor=#5184F3;strokeColor=none;shape=mxgraph.gcp2.hexIcon;prIcon=app_engine;part=1;labelPosition=right;verticalLabelPosition=middle;align=left;verticalAlign=middle;spacingLeft=5;fontColor=#999999;fontSize=12;" vertex="1" parent="57">
                    <mxGeometry y="0.5" width="44" height="39" relative="1" as="geometry">
                        <mxPoint x="5" y="-19.5" as="offset"/>
                    </mxGeometry>
                </mxCell>
                <mxCell id="61" value="Cloud&#10;CDN" style="html=1;fillColor=#5184F3;strokeColor=none;verticalAlign=top;labelPosition=center;verticalLabelPosition=bottom;align=center;spacingTop=-6;fontSize=11;fontStyle=1;fontColor=#999999;shape=mxgraph.gcp2.hexIcon;prIcon=cloud_cdn" vertex="1" parent="4">
                    <mxGeometry x="220" y="420" width="66" height="58.5" as="geometry"/>
                </mxCell>
                <mxCell id="96" value="" style="shape=image;verticalLabelPosition=bottom;labelBackgroundColor=#ffffff;verticalAlign=top;aspect=fixed;imageAspect=0;image=data:image/png,iVBORw0KGgoAAAANSUhEUgAAAXEAAACJCAMAAADt7/hWAAAAYFBMVEX///8tvK8mu6110Mfe9PJCwrb1/PwYuavM7epnzMMSuKq25eD7/v4At6ny+/rn9/VYx7zB6eWG1c3Z8u+o3tjR7+xKw7if3ddfyb/j9vSJ1s5rzMOx496R2NE2v7KX2tOfaYSXAAAMk0lEQVR4nN1d6YKyOgz9KEKxLAIiuIHv/5YXRGdEWU664dzze8Y2acje9N+/PwH/kBX1tvQa546m3Oa3a7aP1t7X/xH+KayPTiw4Z8x5AeOcC1Hm15Mltkd+kuz2QZCFWRYE+yTx/4fn7W8Kt4nfWD0E4yKtD0Zpj3anrMrdtGEiFqI9+u6ohWBe6lbZKTG5tF3sMrdsBXua2T/gorxtDG1iX7Ss5mL01Fl73Ny7VIedmcWtwg+3jkC4/WQ6S0PdeziFecvs9szn99Gqt+YY/nFR3+cMEu4h4U3l69vCofbYIrN/1m7/dJvpW9wyotCLqezuwXmlR6EHOROcuDgTTvUnBT25OUKK3T3PnavyDjZ1Q9Fnr6uL/M9p9N2NUWXrDSLdq2wgyo5k6X4B43+L5618K/K7I5rV0urcLzyy/XgDd85/R7cUjSq5D6JLOTGP2g3oWL5R12xWEGgh9w7GbxIbuGr4wHrw1FB0oBPJJdZEbk9zSf20s0bBYL+DxTJHbhUZ6PjiNDckzXI6aj3w1oAfv9qC+rlG+XqC4RFJdNNjQAbLO4FBjili72nT4K/gBbp+aWb9yijXFFDpF7AeAiO5mktNqoC735nOdQ1olAcQlkdHIwJ+B0+/0DVPzHzRD8SLnvFGt8kegDVfZz9PjUmCWylbMF+hyfN2Ovv5ZSzfG5WwO2ZjEWMm5AfM+yrFEhjn9zzFZ8MSft9AqjFpr4rMPMNbvXKZXN+1wPB2A1uLLJ1HZoXgaYflYmf91km0ytZpZJJpfzLi8XjfFsPbM0dDMbPIzLnh7/DG1rejUnrE3xDw7+0x3BnL3eYWGd6az/Udll1jleAPF/Fm8cC7DRzXYPIrotKSDn8Q/O4uhHYZTsiqmYJNJdpBDDO3G83J8GWsHXtWtkXMKV+zeInVD6zHx2dmFRbdlCfEa0rruALHHb5iy9ZuDYJfPEQbsf0nWLleslzOarKuhTiOu2Zimf//1eTSoS7rOtY7yEmMwDtRk40ihj8n4QkzHjd5kR02u2QThJXrxXSqn0K+I6/egYu42dZFmGXXonJTLrEBp0EZ7nJFDCMuuohxkRanNyEIt9RetaeQp2RWMS68OhhmAE/XlNwshwr5WdXMDb3/hBj6MO4Vo45VRGxY4/n938huEmfpdXQDSUEtiI9mGz4QKruuw4CPplMYT2dMfJaiP8Y46/tHiJ4442U140hntJKhQNIrJ2W7PuwhCEi/x8sFlyoDxKy1d2UePtQSzWrPnvcdV0rVEPHJI0/Zk/OGv0f5V3FbdKj8fFZoWxXcuNfdz89UlAPnHuBCJ5RWBCChdYklLCV7AR8mpykUcw/qYyumWN7ditoWgxufO0JZlQHn3dOEKyq+bDuz8IHrK4ohqgdud9Q9zi3yPK8HTkaCM5yJHIwYrmNC1h58Wh3e/9TFGc5TOBGSwSy3n0LEKWYMjxeub+fIuFPWwch57fEDJ3WwbeCftZ3Pwh0F5lEasItfKW/NpOdmE3Rt0QOndmnuUbpsJ1fgDBIndhzUoue28NxiM/mvAWrjaOd9/2mQMpYTf1gNsGfIt9Skj9tZ+GM1ze0OqGfIyN3+uEtgN52Fijid4a31ui1eGkZFnDUyRUlQY3Gbihy1Wyw1IwcltrzDpJiSYOcJ+If6ADoqzDPTNXYAzTaXvA5aQCxntV6q5oDWIZjSBdhpoJ+99M1AKJxm0z152gHaFmHoLiSYIFLoWMNqiT9f8D53tWNggMCMirGo7IZxXMpqPgAZCv5YIBhmQ7QgHgTZoKfADTUvgQeuFKEUyKGKnisJtB0qBtvB7KaxnkgsFlD7wqB6Xu+sRPRKFPDTA6scYR91qULxHMADPy3/0gwuwCJ9c5aRdoJhmhYzKwsfdeTLAmtzZIqN3silonvX6WdhTYMW58OiHiRjLJ2jZ3dOPWkgDHeEYkCIqJV7ZuVSPpEOcBxg2+GyvfzgwzfJBxi61dBXNBuQ7R3Tt6TU00yAt9I75NEQquuOAOsWb+aiTfO34oRy7JUv79FWUQJynGZlDPoFJczrNAiIIldfBQKUNuQfVbJfRKbuzr8srx7tHgCOG3PHBoggkue6xEhFeDnI5QwH2ANigbUJ2djJrG/mm7/EokPBnr6G41Cv4ZwzbkHEdUxDQdxDOxw/IzI+E/BZEHHpvPgrImCfdvQ4Zjin/1/RUYGMrkrW8AkkP2WH41Aec9pt8km9c3LQ4iefzKyzD5Yx9PN2SDvkjDdu4y6g1ITED9YAERC9CHTpxswvYTi7ZwMplelELVoTVoGW3h0gJ0xPJYx2+X3uf2D4oSr+dFIF7uxRgZbyKuBScWppGfQahuyDUrViUshMZO8/wNRS4z2ADCn58nIN1ocHfXvvrZjAv7wAbXtQhI5yH6D+qA0rSFB1/92B6YTiFzGVVUEqKxqgoUsGCYCoCcr8zWxONu0PchRQHX2K4+r3YjBo4DgSWlNL57t9i0OLuw+Y9Xjp6X828A+5B6miKa0C5Jy1QINWQbZqqOPsDRDHJ9wzM20GI1DPHEZICcjOQARIq0yYFAs5rDs0eIdIoctS3yHEtXG3CZEbLVga/gkAyddZuiQBcXw8PW4l+umgPuTHR5bRUPZAgKX+RpNqtuymcq8KGHVYuiOBjeMVY/8KX5ZShnIWFUlwqp8rBkw1jDrklsIfRz3MhxKctu66YfdRRvOlB4E0/Soyu19eUZFjq1i6BgTmBkYrgLvbdhEXHQ6NYkkC8oA1tMRggCoSKi6xlhoRV3k1CctFaGiJAYHJoHTfn56JqCpth2A/uCXf8B/scUgWd3W9TKDADyyJbXEQAtQ9IVtrRDPIy8tLR+Dg7K/poot2gFIoN2pUX4lI9orEBuyznukP0Q2kA7KDTICg8YIHk4uC0JuqWtoFQEAphw707w4fJ4PwRKYTDs4nC5tDyPEvn7grzZmuuYbqCezQUWJ2J32A91fJMQI41wTX9OQ3qjbwMDglf58MfOge6Zp2hvIRDkqps1VC+DRtJbEeiAjz0vCPD20A5UWND+gqKYVIQuxlV8RJWVd4oA38jGpDUffMgxXLhvAyNEGQ9IASF/ISofkETzAVV1IDOgMLcBFtBK7t11LAETsPmpcf7I0K/HZnd7+IUktioga+sj08NLfDCu/R0oo54jIf/lFG9N4rHWgM9uDP0rzcfyeXdJ9XMrZSAvHtCMbO06olOBLIfTg/xBT6/IzgTU6sgkw8dGYUtBnBHc3MHQ1HEuLc8YcCheq+L2Dcm5qDnR2pVSf5HJkK6K0+TDj5cDxnEtw84mj752B7ONHwi262/7tsRllOf0diDZ3yT/L9BsZjlrrnW1Xdajd1YvJLAr8BFRz2Dpd3Lrdwn/i+n+yzok6FxIOLzLYr/oR0kq9/o0SugvzbWEnyll5X51zE3OFx10gslRi2V2t7g9wjJWp4bdhd5xmgFWKfNUkeWCzf/DCFMZgaUYrA+nNqb4lIbOqm7j2Ymm4HwVZn8hPvlWorV7jeENMz7jph4e7xL9jHTXvoXqlemBpRisLmU79jVwBsf2SOWCX0eYVF4zmWOzIy2HFuD2f7LH4n2dprv+M+2c6qv7KiX/gLYDqDHmInBg4EFt/7VZjzrBPSr2PSiJ28UmbvweEvYTh8z1yN2JmRGrYe1RbfoFJ66OmEnQO/zIR50dHOV7a6l/KCrWGSFz7nxIb1Vr86pxMRqUJIxuLnDF4gUMFyodYujLI8Xu6npDxhKAPW6BjWohUGdSn0mLFvVMr5cb1s4TTg7h4aWIMljhLac72kLdhsWqagkihfLYJv0X4q/2KI5bxcN1k4g1B/wE1qw6lNHHlrtq3MT5EDpWsPAfhK8A9C/TP7eaM+wcIkfFdjkoPFZ6q92mlW5ixGuufWRabNTeOlTNfTTaeYi3SlJgkSEj3xJ28kSy2HUhfPuWfzHUgVhMSethEwVkubq6hydJw5965fr1B+4CvSzHiuFOHtctUjZ8IrvthDGUGSyztqXJHfHTauiqPI4mP2d+T7ieQsZASNiUaPcJ3cWE7QGRfuCo3KOuDfqE9asal2ZykktcSTWpyn4d8T7x9E2bYlGr2Nyp30qrfZKQqPjMD0dgdl9XUpQip2xdZZVqmM89INTUwqORUpE8Cht7qkMbODFZBkeck7pT5Kd0sqL/PryZxnsMvOKZ8xKl1vc+NW+zWbCbUjSoIqL524n/zcPz3JuyZuJ82rIDGuOCM/u12avl285zy7t7ALEXPvUl83f8sTxBGdgvBaFLfz+Xy7hlmwt0uofwiv1dk9ll7jeEe33UKgi9X/AQ9b2z/69j9aAAAAAElFTkSuQmCC;" vertex="1" parent="4">
                    <mxGeometry x="741.13" y="230" width="107.74" height="40" as="geometry"/>
                </mxCell>
                <mxCell id="97" value="" style="shape=image;verticalLabelPosition=bottom;labelBackgroundColor=#ffffff;verticalAlign=top;aspect=fixed;imageAspect=0;image=data:image/png,iVBORw0KGgoAAAANSUhEUgAAAXEAAACJCAMAAADt7/hWAAAAYFBMVEX///8tvK8mu6110Mfe9PJCwrb1/PwYuavM7epnzMMSuKq25eD7/v4At6ny+/rn9/VYx7zB6eWG1c3Z8u+o3tjR7+xKw7if3ddfyb/j9vSJ1s5rzMOx496R2NE2v7KX2tOfaYSXAAAMk0lEQVR4nN1d6YKyOgz9KEKxLAIiuIHv/5YXRGdEWU664dzze8Y2acje9N+/PwH/kBX1tvQa546m3Oa3a7aP1t7X/xH+KayPTiw4Z8x5AeOcC1Hm15Mltkd+kuz2QZCFWRYE+yTx/4fn7W8Kt4nfWD0E4yKtD0Zpj3anrMrdtGEiFqI9+u6ohWBe6lbZKTG5tF3sMrdsBXua2T/gorxtDG1iX7Ss5mL01Fl73Ny7VIedmcWtwg+3jkC4/WQ6S0PdeziFecvs9szn99Gqt+YY/nFR3+cMEu4h4U3l69vCofbYIrN/1m7/dJvpW9wyotCLqezuwXmlR6EHOROcuDgTTvUnBT25OUKK3T3PnavyDjZ1Q9Fnr6uL/M9p9N2NUWXrDSLdq2wgyo5k6X4B43+L5618K/K7I5rV0urcLzyy/XgDd85/R7cUjSq5D6JLOTGP2g3oWL5R12xWEGgh9w7GbxIbuGr4wHrw1FB0oBPJJdZEbk9zSf20s0bBYL+DxTJHbhUZ6PjiNDckzXI6aj3w1oAfv9qC+rlG+XqC4RFJdNNjQAbLO4FBjili72nT4K/gBbp+aWb9yijXFFDpF7AeAiO5mktNqoC735nOdQ1olAcQlkdHIwJ+B0+/0DVPzHzRD8SLnvFGt8kegDVfZz9PjUmCWylbMF+hyfN2Ovv5ZSzfG5WwO2ZjEWMm5AfM+yrFEhjn9zzFZ8MSft9AqjFpr4rMPMNbvXKZXN+1wPB2A1uLLJ1HZoXgaYflYmf91km0ytZpZJJpfzLi8XjfFsPbM0dDMbPIzLnh7/DG1rejUnrE3xDw7+0x3BnL3eYWGd6az/Udll1jleAPF/Fm8cC7DRzXYPIrotKSDn8Q/O4uhHYZTsiqmYJNJdpBDDO3G83J8GWsHXtWtkXMKV+zeInVD6zHx2dmFRbdlCfEa0rruALHHb5iy9ZuDYJfPEQbsf0nWLleslzOarKuhTiOu2Zimf//1eTSoS7rOtY7yEmMwDtRk40ihj8n4QkzHjd5kR02u2QThJXrxXSqn0K+I6/egYu42dZFmGXXonJTLrEBp0EZ7nJFDCMuuohxkRanNyEIt9RetaeQp2RWMS68OhhmAE/XlNwshwr5WdXMDb3/hBj6MO4Vo45VRGxY4/n938huEmfpdXQDSUEtiI9mGz4QKruuw4CPplMYT2dMfJaiP8Y46/tHiJ4442U140hntJKhQNIrJ2W7PuwhCEi/x8sFlyoDxKy1d2UePtQSzWrPnvcdV0rVEPHJI0/Zk/OGv0f5V3FbdKj8fFZoWxXcuNfdz89UlAPnHuBCJ5RWBCChdYklLCV7AR8mpykUcw/qYyumWN7ditoWgxufO0JZlQHn3dOEKyq+bDuz8IHrK4ohqgdud9Q9zi3yPK8HTkaCM5yJHIwYrmNC1h58Wh3e/9TFGc5TOBGSwSy3n0LEKWYMjxeub+fIuFPWwch57fEDJ3WwbeCftZ3Pwh0F5lEasItfKW/NpOdmE3Rt0QOndmnuUbpsJ1fgDBIndhzUoue28NxiM/mvAWrjaOd9/2mQMpYTf1gNsGfIt9Skj9tZ+GM1ze0OqGfIyN3+uEtgN52Fijid4a31ui1eGkZFnDUyRUlQY3Gbihy1Wyw1IwcltrzDpJiSYOcJ+If6ADoqzDPTNXYAzTaXvA5aQCxntV6q5oDWIZjSBdhpoJ+99M1AKJxm0z152gHaFmHoLiSYIFLoWMNqiT9f8D53tWNggMCMirGo7IZxXMpqPgAZCv5YIBhmQ7QgHgTZoKfADTUvgQeuFKEUyKGKnisJtB0qBtvB7KaxnkgsFlD7wqB6Xu+sRPRKFPDTA6scYR91qULxHMADPy3/0gwuwCJ9c5aRdoJhmhYzKwsfdeTLAmtzZIqN3silonvX6WdhTYMW58OiHiRjLJ2jZ3dOPWkgDHeEYkCIqJV7ZuVSPpEOcBxg2+GyvfzgwzfJBxi61dBXNBuQ7R3Tt6TU00yAt9I75NEQquuOAOsWb+aiTfO34oRy7JUv79FWUQJynGZlDPoFJczrNAiIIldfBQKUNuQfVbJfRKbuzr8srx7tHgCOG3PHBoggkue6xEhFeDnI5QwH2ANigbUJ2djJrG/mm7/EokPBnr6G41Cv4ZwzbkHEdUxDQdxDOxw/IzI+E/BZEHHpvPgrImCfdvQ4Zjin/1/RUYGMrkrW8AkkP2WH41Aec9pt8km9c3LQ4iefzKyzD5Yx9PN2SDvkjDdu4y6g1ITED9YAERC9CHTpxswvYTi7ZwMplelELVoTVoGW3h0gJ0xPJYx2+X3uf2D4oSr+dFIF7uxRgZbyKuBScWppGfQahuyDUrViUshMZO8/wNRS4z2ADCn58nIN1ocHfXvvrZjAv7wAbXtQhI5yH6D+qA0rSFB1/92B6YTiFzGVVUEqKxqgoUsGCYCoCcr8zWxONu0PchRQHX2K4+r3YjBo4DgSWlNL57t9i0OLuw+Y9Xjp6X828A+5B6miKa0C5Jy1QINWQbZqqOPsDRDHJ9wzM20GI1DPHEZICcjOQARIq0yYFAs5rDs0eIdIoctS3yHEtXG3CZEbLVga/gkAyddZuiQBcXw8PW4l+umgPuTHR5bRUPZAgKX+RpNqtuymcq8KGHVYuiOBjeMVY/8KX5ZShnIWFUlwqp8rBkw1jDrklsIfRz3MhxKctu66YfdRRvOlB4E0/Soyu19eUZFjq1i6BgTmBkYrgLvbdhEXHQ6NYkkC8oA1tMRggCoSKi6xlhoRV3k1CctFaGiJAYHJoHTfn56JqCpth2A/uCXf8B/scUgWd3W9TKDADyyJbXEQAtQ9IVtrRDPIy8tLR+Dg7K/poot2gFIoN2pUX4lI9orEBuyznukP0Q2kA7KDTICg8YIHk4uC0JuqWtoFQEAphw707w4fJ4PwRKYTDs4nC5tDyPEvn7grzZmuuYbqCezQUWJ2J32A91fJMQI41wTX9OQ3qjbwMDglf58MfOge6Zp2hvIRDkqps1VC+DRtJbEeiAjz0vCPD20A5UWND+gqKYVIQuxlV8RJWVd4oA38jGpDUffMgxXLhvAyNEGQ9IASF/ISofkETzAVV1IDOgMLcBFtBK7t11LAETsPmpcf7I0K/HZnd7+IUktioga+sj08NLfDCu/R0oo54jIf/lFG9N4rHWgM9uDP0rzcfyeXdJ9XMrZSAvHtCMbO06olOBLIfTg/xBT6/IzgTU6sgkw8dGYUtBnBHc3MHQ1HEuLc8YcCheq+L2Dcm5qDnR2pVSf5HJkK6K0+TDj5cDxnEtw84mj752B7ONHwi262/7tsRllOf0diDZ3yT/L9BsZjlrrnW1Xdajd1YvJLAr8BFRz2Dpd3Lrdwn/i+n+yzok6FxIOLzLYr/oR0kq9/o0SugvzbWEnyll5X51zE3OFx10gslRi2V2t7g9wjJWp4bdhd5xmgFWKfNUkeWCzf/DCFMZgaUYrA+nNqb4lIbOqm7j2Ymm4HwVZn8hPvlWorV7jeENMz7jph4e7xL9jHTXvoXqlemBpRisLmU79jVwBsf2SOWCX0eYVF4zmWOzIy2HFuD2f7LH4n2dprv+M+2c6qv7KiX/gLYDqDHmInBg4EFt/7VZjzrBPSr2PSiJ28UmbvweEvYTh8z1yN2JmRGrYe1RbfoFJ66OmEnQO/zIR50dHOV7a6l/KCrWGSFz7nxIb1Vr86pxMRqUJIxuLnDF4gUMFyodYujLI8Xu6npDxhKAPW6BjWohUGdSn0mLFvVMr5cb1s4TTg7h4aWIMljhLac72kLdhsWqagkihfLYJv0X4q/2KI5bxcN1k4g1B/wE1qw6lNHHlrtq3MT5EDpWsPAfhK8A9C/TP7eaM+wcIkfFdjkoPFZ6q92mlW5ixGuufWRabNTeOlTNfTTaeYi3SlJgkSEj3xJ28kSy2HUhfPuWfzHUgVhMSethEwVkubq6hydJw5965fr1B+4CvSzHiuFOHtctUjZ8IrvthDGUGSyztqXJHfHTauiqPI4mP2d+T7ieQsZASNiUaPcJ3cWE7QGRfuCo3KOuDfqE9asal2ZykktcSTWpyn4d8T7x9E2bYlGr2Nyp30qrfZKQqPjMD0dgdl9XUpQip2xdZZVqmM89INTUwqORUpE8Cht7qkMbODFZBkeck7pT5Kd0sqL/PryZxnsMvOKZ8xKl1vc+NW+zWbCbUjSoIqL524n/zcPz3JuyZuJ82rIDGuOCM/u12avl285zy7t7ALEXPvUl83f8sTxBGdgvBaFLfz+Xy7hlmwt0uofwiv1dk9ll7jeEe33UKgi9X/AQ9b2z/69j9aAAAAAElFTkSuQmCC;" vertex="1" parent="4">
                    <mxGeometry x="741.13" y="381.5" width="99.66" height="37" as="geometry"/>
                </mxCell>
                <mxCell id="98" value="" style="shape=image;verticalLabelPosition=bottom;labelBackgroundColor=#ffffff;verticalAlign=top;aspect=fixed;imageAspect=0;image=data:image/png,iVBORw0KGgoAAAANSUhEUgAAAPgAAADLCAMAAAB04a46AAAAilBMVEX///9h2vta2fuz7P35/v9Y2Pum6v1o3Pti2/ug6P31+/yL4/xw3vvh9/78/v/n+f6a4PTv+/594PzV9f6W5vzJ8v7C8P257v3R9P7d9/6B4fyP5PzF8f207f3s+v924Pze8PWj4vWJ2/F52fTX5upt0OzH6vV70emR2O3l8fOW0eLT7vaEzeFczexr5OZNAAAPKUlEQVR4nO1d6ZqjuBW1BELsDPtWNulJ0plJZ97/9XKvsLEEEq5ebMN8nF9VmHLpIOnq7pxOBw4cOHDgwIEDBw4cOHDgwIEDBw4cOHDgwIEDBw4ceCXsi//ZW/0kfeZIXonW60KXZ4HTPGJ/Kb2OE7i1vrxkZE9F7HBGBRjJqrXZbLyQ3hDWLxvgkxANQDvMAAMB7tQzzWWDN1I+4J0c7gz2PenpAGTOlxTRekCIDlWsue9SuPBZZiXizqgghAa6+/aCuIDpzqdfE0E9aBf31Xi9+7DvFyhhe17tJSVuLl+4eDCz7lmVclGPsy3RBjhwZb/iPc4oPc+ulbiXe5n5RwjTW8y2tA17pHz2+J6GlmimLXaIvP5thxHKl8s6d2n25OE9DzWljubyBzDn1+n0A0rosNz1JzugbvTU0T0RBWUaSrCpO1julfgpA96OVn7DU/t45uCeCNinXP9JCuLMrUfexCC9S/1y2QP8kHamz0Bq0/4LN/M+JXDDTo/yCzETP9WgowBt0phusDkNbNOH20bDVoiDAADaxDJ+Hoe7Jf5B14g3SJybBfeeif/UjJ92THxtxi0q9jjNjXfsl3i5MuPAm/QOqLShabHveKkn5hlvwFaBVZ52YIsY/DI7lurmczwCM1Sc32kAp7WeHhyGeyUOmpueOCjoN60s5WLqNcj3q8AA8VD7Aejwxe3nll/V9jnKpUm7G4BGrnMmAKUwkX/TmmHVjg1yizLNaQWWtqKo1qDZagTcmVKjOrt1VFTjOPMHSgv5QhzMLoxXe+ru1tEKc7tk5IHm8pt8IUZfxML09jMa7lS2CZGtnkhxGhUMNdXAuaMjQndNUoUnCHXvtaP9hbCzSYrZUWk5Xj9woaETKkNcITzrPefcRFf+hUHY7wMg1os0jfK6DyljV46MLCA+EGEmRslg5VFSuYR8e/fwfxj/4MAnDDmhQJq4riDp1m00R26N0+6OS8Hl+If0y7vH/4NI6vC2rHnnOR9t6yA9/eF8xht/axvL60N8TuIv+3J3MYU4qQP3unnDKrke0z6Ib4MBHqN5Pt4Wp601XB8Z9/bFPS+42LEu7Gf6dboMSprR7oiA+J1ji4ueiPhy5iSGP9ka0o9OyLGiiv6EvcuncV9Cys0kQM27u5PhIBwSP7c6DKKyIN/Bie7XGU4WdyIx2I6SSRGHLb4SAfU7yicFt6SjLLBzET92C7OjZiNoMpztYNqZzV0piwgt1mYuJ5OuFgdsuH1DYg244otNL/i0wNnupelJs5sFCjPK1oNh1mSIRlxa9ie7GkAqhs1213ubMcIy1aYqaDjO3ZnRYP3PfX6TAWCSKkG3FCOsxNmqQ6Z0cXSzeSnZeIIloWyEI+wkT1Qq1c1MyxaJIKmIqm5zuVdwdIUL9SQlNEMS1sxETc8BJ2FQy5Z4mlERYYgYXUhBG/3R3RYN1RwG1mscCoVYtolLQ2l6U48I7YyyUDZFGiam3GO6Y68J6fgMtwXMb/J0nuKWUy+2C8WDlmR0sk+IzDxA50zO9dKg4aZY+jvhmKYjDuAYBmmf3SfcDibeCOkQaF3KC+Cnt0jhdN+cOwpll+GwqkSwSB7xh8KbDpI6jv4ZYgwyWMrz2wTO5vyFVNiYnTTgQiFOZEnW0tkF9asySRHcBjJKjSNCY1uecNuduSHkHe0hc2O2b8U25mz3YbTGQzaBKZcdhxGdEe+kD3Owywbj/7noHLLvROquEPdDNSekZCvEYWOsJbhx5eb3I/2eGc/XiK/PeLq1GY9hUo3Ez7M9ns6X+nyPc6Pkhj2+Md+rR42i2B+QuOx66R5JdVPQzAepvjF9HVNPDd4xkeWjTHmtnuOyfjqe44aQOZgDa1k17wHopAax01M6DMqnquYmzy9qbgE3hQsTssEIagRCydNNVASad5oWSoQ0Ge7MqSU9r566+akN9RIME0eKjSlugJrpXUugxOeLfJgkuEaOqJLw1YwBM0trnV2AN9+is9lBg3mhvtl8VK8ddZXGTSDCLJ7MEDRS12SPn0rYAXyTPkeRcr/wRORXJTMNZ+H/OCrLRp3Y6hYhHRTVXkA4nzbJ+ySKLNAJrlxz2NXnBkfwg7ivz2+GmkWZKt7KAR7qhiuyog6d4I60Ef2OXemip2J95OfJO9VyJj+kSDhvvS3u7wli0rnT3lZqQ6Y0GJBcq371yL0nSRV3I/1S9i58Z7c1D8QcqYOFkjyrx4F3knpSMLKmbxb0HknNbz8nVoizndWfrsp9Hy4ORgxZ6DSXFGNn0/pO+M3HrkPjSsvbFrGzSykq9FhX7oA2Ij1nrgjwi0jxPTRQruS1pFxWwyM44V0u0gTCYuuLXEaaY2nw1faKpqOJm08kOAtvOzxOm9GMwbrL+rIp+/sTiJuCj8ypm3lWnqKuDRaJtiALoxGYu25Hldfz0ecO6pC1MQfbJxF/46iTjokt7tAXIjVk+Bpd7FiaxthOWks8orDv+DUPCpn/vj29/LP4ndKsaXMrcCljjN3WLz6EO4KQ3HYF3kSGos5zR0ml2BviaywME/tKyym6MHSvq5/dcSXt8qH3HKu5BhJ3nec2z2y0k6QRwSMaelNioyc2AO1btStGbspj3wMiTS6rjwJbCYf4AyFsEY3wsx1XE5e6sv8IjudevmB3OoeS3VN308r5GhxtvnpF1Tq7Gla+xnrZc766vkIhdigN7jpoQ/RazY4rFEw1KXEnCa4kNDimd1yTYqxCugxTOgD2gvjbVSGZ686ayY3kGbM80/3Wna1UGtagvuEOthgd/n6Vhmu1pSDgeHOxXJPRsuva0vVqYgZaKjOHyfZcTfxz9eN7nvFV4rkwRFf8rvslvt4jQtRprIRGdjzjq11BqjFkaO5ktWOpvtYH5kwJ5f9EA9WkkO+4D4ydmbJZYssF9STxMT3VNcj1HXf+QS+KdiX7HiVMBNMj0FgN9Ro77vUEY2c695Fge+sYgH6JQmfDFZtLYvw8Wle3TSv0pE4PJC1Ai+mW6lvCV7K+to44o4vCwqRglGYzRwRl9VyA9+Y0qh2gZjRUbBC7xpDiLOALIo6QXs0RyN15Jceu4Hdgdd5ZxjXsbjYsZFZaiAI9SZlJQsr26oYQaOGkzsbWw35aYdoA18b3c1Gl15e+WPF+FRqTx/aCGiNCnVOfvW6M+BqsUF/sARr257rGTkhsk3U334NWlIeKEluY7ZXsHbsK7o0EXG15y77gl53gwoP6gbSycycTQcNw7QHtCUme59HnDA6/zfNk37v7wIEDBw5sH+miec3u0rF+CNHAF+icPTTt+EnU2kZNdPtNO34W1q0bldqcC3tZvWE08etWmqiPzRzrDqcbqXevZ970r+uRIho1zAynpBiZv9z7z+kyWepZQOKLBGS7xq2udag+E75uLM8CEtc85Q+X6F6Q8Vz45P3Exwjgi/3/myCeoNDrNR88EZsgPlY/v2oUI9JNEG9gl7uvlev/ouR1rlgj8Ygviad1kA2AzDMV09i50423FMaX2k3fEpzv8ZfL1+rLvzEF/Pe6qqoXnObfQTyRXlhHskWICHCpJw8sehgt3amQotv5pity70rdnjoHCRVieP55YiTezolbLsOmjUOXcSp6281Dn3E99nWckvXlN6PdgG/GulYujAUbo7JwUU0GcyeWXwYjcczskFo72Fj5z70Gp8Ju6w5+c9XTDjsuwy191eR5UxWu+G3GPPYE27CAm5q6xy6+1/zP/trkFb4WEDzfCW8kHqhSHUuqszsN35o1S8AaWxi0M3mS8wAbes4Cw46Y5FuXzjhC3dgVoRi/zb/+BxfDH/Dc2hdoTibiLQ77Xo2A863WJmCXEyWJEZvWKfLsvFB7LfxSpVNayaWS+j83INX9QHmtEXbhKmbLD3uSyalAsTV/q2OBXTGkayg25q0RIkdaRu8/x+Me1+RUKpwOlAwLKf5Bif7tZzcksG3lFgmiWeHK7n058cU/uwi79D5mbHizTGWyA0q9tZWJj0+SA9gRxpjhi3g58Zk9fqlFiw+pSizUz1RD1975dP3yKbcVk3/Web2aOLC6F405XkbkAxbRMENr6eyB46CWXzKADaLI6tZ4OfFlP3zMPb/fg4eQdmaxCGftyxXi2ALM1MhvxBuIz7ysXKnnx7Y+S9GGgL2vpgIlpYfFpU45HucKcWwxsk7rDcSvDvVReeKV2lYWSwm51uKA011+FUxShGORKWVctBJRiKOkW3dmvZ74lygR+NahhvHH7JZLiMXyVbmA46rtA0IqOsc7luN0lHn+6YtMvHvYkfPlUv2uZIh8zHmufesuxMAkDqQszRp/Da97JI48Hv73LzIjvv72iHee49iLb/7Pv43WYqjF1E+2FU0UpGeW4PLZNnH5SEIJzlSzC88h+uWRvRQstHnhvdr0UpeJY80gHZTFjr1T6eoBfBqfzrxTl99vW7ipunrJ5u5VPM7Yozrgkmh0/laecWu5JGZ4s5HSzzpRjrb4o9AOng4Lf0sqEy9Rbq4a2m8mjs42VX1HlfVRh2TYz8vkZGzJeldZyUrTSoF3m6W16oM4oZFiev/NBI+SZZM+hXjsPfIzvJu4aPqgLHY0Sx90gMfTYCEHlKUunDrmVzafRuIv606rc0RE7qzFKMp1tmp6Cx/NYrZy9RVwKNfXdjkSX3NU/FJoPTDCVpWfPfZPX/CKW+mME12JZ3JAWOAScSE9epV5XtyVhpg/8FT8SmiJ+9n8ReKoizD17R6pQ13pFo8tvshSFJiTcMSqznbbIUw6DDrdmfgk6H1uOZ2tulg4hrvp/Th2UoNJIvdGSdBEkYsVEuGvVN926Ajlt2hF3YKdfogHfCcuWrFXfmynzw/aGbysPc6NXENiO8IkybyP5lteWoGoTlCWLXZLoNPLZFKLh//7a048rkfvTtZ7lheIFs7yfy+FjZwFQfb8tH44u5jGrYR+Veoq+63pRMyLXaM/lGazvIE8E2ZpUVd1MTACjw3MUjZ7q93YuHby9SieHuyRc7MDn55udulC7etp8oyHs2a0vpVJpRbZx0I+pw6/fcyLaPzybC6s/CqbAouEzF59dumun3QviJeatpNtL8+vpHSCLuu8utQPLMXPu95qbitV++UXcVfgVPnybGsc/Pt8g+XWNmDt81j3wL7nrk/9/YEDBw4cOHDgwIEDBw4cOHDgwIEDBw4cOHDgwIEDj/B/PmOy+KLgHaUAAAAASUVORK5CYII=;" vertex="1" parent="4">
                    <mxGeometry x="518.92" y="370" width="61.08" height="50" as="geometry"/>
                </mxCell>
                <mxCell id="110" value="" style="shape=image;verticalLabelPosition=bottom;labelBackgroundColor=#ffffff;verticalAlign=top;aspect=fixed;imageAspect=0;image=data:image/png,iVBORw0KGgoAAAANSUhEUgAAAOEAAADhCAMAAAAJbSJIAAAAY1BMVEUxeMb///8rdcUlc8STstxfktAUbcLk7PZjlNEYb8MgccTT3/CvxeVJhcsPbMKpweM/gMnx9fvF1eyApthyndSMrtubuN/M2+7e5/RUi827zumCp9jB0+t4odb3+v03fMjh6vWD4TdVAAAGf0lEQVR4nO2da5eqIBRAEZIEE7M0s5s5//9XXplqpprwEQjoOvvz5GIPIJ7DCwUvxOk+3KJ5sg33afwqhJ71ak4Jwa5L+jGYEMrrWGlYJpS4LqMBCE3Kt4ZZJOZbec9gEWV/DXdsCfV3h9Ddq+FBuC6UYcTh2bCgrktkHFo8Gh6WJ9gqHn4Nd0trolfE7m6YMddlmQiW3QyjJb1FHyHR1bBcZhuViPLbMFnKQP8XnEjDeInv0Ts0bg3rpfZCCalbQ+66FJPCA7ToRiqbKUqX3EjbZpqi/cIN9yhc7lghwSGaa05mKEv3Q6hxXQAAAAAAAAAAAAAAAAAAAAAAAAAAAAAAAAAAAAAAAAAAAAAAAAAAAAAAAAAAAAAAAAAAAAAAALrBhBDOOWOMfzPnM6tfwYQzgcJ6lW7OO8n5dEoPRV4hQRmZ5KwybJQeO0bC1fnr9RzyG+syrRvKTVs2UWiSRK3HRZUeFXK/ZOeitTQoKI/MNMlGUThMt5us/+dXjgdkrlvaMcQi+nNEfjfmmqoVQ1aN9AuCWdUh4afxz5mTIY0uHzxnRoYi/eg58zEUZf9vZm1I+wfA98zF8NManI0h3Xz8nHkYkvzz58zDEH8yTNyYhSH7YKD/YQ6GuNJ5zhwM6ZBv0ctF0ZJnYNj34PKQJ5gz2ka8TbhPy5fQagaGnZ/bp0gw/psQwG3wL3B9erA0mLZJsrUSRboh+1L/5HAP7Kj6RXpC7J0AkUmAu6TJxBRVI96XsBDqn9wFcaQUzNXXG2AuotK4YQf4fRFXAwJwogwpku5fY9acZ2HIVG/S/jtGMEuOMzCkirRTPOSmHywOls6X12mlH1fh9eeaJR+KhuFWYejZBRyfG+JQYejZdVQahqrBYjmGqtDQszs4JjAs/OqIE7TSzK9mqmGo/KD36/5JjdFC8dOW3Kd7xXS+adShRe3RHZQ6hh0RvkdX3WoY8q5UaYx9eaPq9MPuXGkh/HDUMES80zBY51446hiyc7di8FV74KhjqPz2/iVbcdcjh44hEqplM49smrdJKWtoGXbkoh4pI5eNVctw8OTh+p/RFUKj0DNEzTDDILismKN61DQcMX94WVEnjpqG9yvfhzk6+QjQNbxd+T6QLBfW36vahiOXKsRb268cfcNxtWg/7DBgOHZN1NFaMvgbE4aI1aMUL5XNlmrEEJFm3MIomzkAM4YIi2KU4j97ioYM5URLXyzlSNGY4dhlwrWtvmjQUC71HtEdK/9nSN89bYRjZqkSzRpKx3DoB8DGTlc0bSi3XTTpsPV8iZV2at6whbNiPcBwZ2V+YxLDduwQ+YAXq5W1ChMZyg5Z9QYdqY0P1MkMZYfsGyDXNsKMCQ1lPebdW722Ft41kxrKVWydq4htTIhPbNgGj12R1cnCqD+5ISIdy1uPFgb96Q27VvBeLIyIFgwRVydVl9APJUIZOloY860YYtUiPxvDhRVDJFQxlYWPbzuGykUNfhs2wzsRV81u+N0Pq+FLn/hKYej3VxuLi6FfzqpWevF7xGdxUOJh1aia8F/7PeJ/70b4N2S6TLnHbed9HbYcK9rrqBwsDn5/ed93lJRVz9Suem4q8v1Nc//rYy24sqxEqENEG6koQ7uCLpvqvSTvCvNLGxlTc/uesk1OBOc/p0FhTLhoDl1pxb3nmag3O7vW50MdNly04CRanXqypr7nS5V714ZiI4fh1tD7rL6uYWxn04JDQztV6NAwtTTP7czQSkZf4srwMr3aDUeGFxszFlfcGGaNvSWKTgxjmwd9ujBcWV2daN/Q9gpTrV1Bq8FHXf5wDG2vEtbKCBORjzvLbGfdTzvnjRn5txt4GtZx9f5Il2caZHgvuH5WXx48u9r1tNf1aY+HbUbYotBwNUdvUZ+k+w55fhCKik359ac6L1/lpqjI4KODcYhMR/4fnIaseBDhjLX1lFRRXu/3dZ1HSUMoZXzM6Ef2yMoqGx3a/w/55qN/FEmRpbjRFTRGgesdi9PCAzT0gJt5QurWcNHNlMatoa38hgvk0pvWsPTnvALTyF1irWEQLbUnErmvWBpmHp2rYRSW3QyD3TLb6XWb37ehZ2fcGOK24fZqGBTLU6S3vWE3Q58OgDGDuC8quhsGO1f72yeBsJ+dNj+GQRbZzwhMBBbRbwT9a9gO/YmbPfyGITR5zPY8GgZBXHM653uU2kiS8vo5K/lsKCXTfejZOX6D2Yb79E/S9T8sK1Xx6C4+/gAAAABJRU5ErkJggg==;" vertex="1" parent="4">
                    <mxGeometry x="440" y="220" width="50" height="50" as="geometry"/>
                </mxCell>
                <mxCell id="111" value="" style="shape=image;verticalLabelPosition=bottom;labelBackgroundColor=#ffffff;verticalAlign=top;aspect=fixed;imageAspect=0;image=data:image/png,iVBORw0KGgoAAAANSUhEUgAAAOEAAADhCAMAAAAJbSJIAAAAY1BMVEUxeMb///8rdcUlc8STstxfktAUbcLk7PZjlNEYb8MgccTT3/CvxeVJhcsPbMKpweM/gMnx9fvF1eyApthyndSMrtubuN/M2+7e5/RUi827zumCp9jB0+t4odb3+v03fMjh6vWD4TdVAAAGf0lEQVR4nO2da5eqIBRAEZIEE7M0s5s5//9XXplqpprwEQjoOvvz5GIPIJ7DCwUvxOk+3KJ5sg33afwqhJ71ak4Jwa5L+jGYEMrrWGlYJpS4LqMBCE3Kt4ZZJOZbec9gEWV/DXdsCfV3h9Ddq+FBuC6UYcTh2bCgrktkHFo8Gh6WJ9gqHn4Nd0trolfE7m6YMddlmQiW3QyjJb1FHyHR1bBcZhuViPLbMFnKQP8XnEjDeInv0Ts0bg3rpfZCCalbQ+66FJPCA7ToRiqbKUqX3EjbZpqi/cIN9yhc7lghwSGaa05mKEv3Q6hxXQAAAAAAAAAAAAAAAAAAAAAAAAAAAAAAAAAAAAAAAAAAAAAAAAAAAAAAAAAAAAAAAAAAAAAAALrBhBDOOWOMfzPnM6tfwYQzgcJ6lW7OO8n5dEoPRV4hQRmZ5KwybJQeO0bC1fnr9RzyG+syrRvKTVs2UWiSRK3HRZUeFXK/ZOeitTQoKI/MNMlGUThMt5us/+dXjgdkrlvaMcQi+nNEfjfmmqoVQ1aN9AuCWdUh4afxz5mTIY0uHzxnRoYi/eg58zEUZf9vZm1I+wfA98zF8NManI0h3Xz8nHkYkvzz58zDEH8yTNyYhSH7YKD/YQ6GuNJ5zhwM6ZBv0ctF0ZJnYNj34PKQJ5gz2ka8TbhPy5fQagaGnZ/bp0gw/psQwG3wL3B9erA0mLZJsrUSRboh+1L/5HAP7Kj6RXpC7J0AkUmAu6TJxBRVI96XsBDqn9wFcaQUzNXXG2AuotK4YQf4fRFXAwJwogwpku5fY9acZ2HIVG/S/jtGMEuOMzCkirRTPOSmHywOls6X12mlH1fh9eeaJR+KhuFWYejZBRyfG+JQYejZdVQahqrBYjmGqtDQszs4JjAs/OqIE7TSzK9mqmGo/KD36/5JjdFC8dOW3Kd7xXS+adShRe3RHZQ6hh0RvkdX3WoY8q5UaYx9eaPq9MPuXGkh/HDUMES80zBY51446hiyc7di8FV74KhjqPz2/iVbcdcjh44hEqplM49smrdJKWtoGXbkoh4pI5eNVctw8OTh+p/RFUKj0DNEzTDDILismKN61DQcMX94WVEnjpqG9yvfhzk6+QjQNbxd+T6QLBfW36vahiOXKsRb268cfcNxtWg/7DBgOHZN1NFaMvgbE4aI1aMUL5XNlmrEEJFm3MIomzkAM4YIi2KU4j97ioYM5URLXyzlSNGY4dhlwrWtvmjQUC71HtEdK/9nSN89bYRjZqkSzRpKx3DoB8DGTlc0bSi3XTTpsPV8iZV2at6whbNiPcBwZ2V+YxLDduwQ+YAXq5W1ChMZyg5Z9QYdqY0P1MkMZYfsGyDXNsKMCQ1lPebdW722Ft41kxrKVWydq4htTIhPbNgGj12R1cnCqD+5ISIdy1uPFgb96Q27VvBeLIyIFgwRVydVl9APJUIZOloY860YYtUiPxvDhRVDJFQxlYWPbzuGykUNfhs2wzsRV81u+N0Pq+FLn/hKYej3VxuLi6FfzqpWevF7xGdxUOJh1aia8F/7PeJ/70b4N2S6TLnHbed9HbYcK9rrqBwsDn5/ed93lJRVz9Suem4q8v1Nc//rYy24sqxEqENEG6koQ7uCLpvqvSTvCvNLGxlTc/uesk1OBOc/p0FhTLhoDl1pxb3nmag3O7vW50MdNly04CRanXqypr7nS5V714ZiI4fh1tD7rL6uYWxn04JDQztV6NAwtTTP7czQSkZf4srwMr3aDUeGFxszFlfcGGaNvSWKTgxjmwd9ujBcWV2daN/Q9gpTrV1Bq8FHXf5wDG2vEtbKCBORjzvLbGfdTzvnjRn5txt4GtZx9f5Il2caZHgvuH5WXx48u9r1tNf1aY+HbUbYotBwNUdvUZ+k+w55fhCKik359ac6L1/lpqjI4KODcYhMR/4fnIaseBDhjLX1lFRRXu/3dZ1HSUMoZXzM6Ef2yMoqGx3a/w/55qN/FEmRpbjRFTRGgesdi9PCAzT0gJt5QurWcNHNlMatoa38hgvk0pvWsPTnvALTyF1irWEQLbUnErmvWBpmHp2rYRSW3QyD3TLb6XWb37ehZ2fcGOK24fZqGBTLU6S3vWE3Q58OgDGDuC8quhsGO1f72yeBsJ+dNj+GQRbZzwhMBBbRbwT9a9gO/YmbPfyGITR5zPY8GgZBXHM653uU2kiS8vo5K/lsKCXTfejZOX6D2Yb79E/S9T8sK1Xx6C4+/gAAAABJRU5ErkJggg==;" vertex="1" parent="4">
                    <mxGeometry x="440" y="371.5" width="47" height="47" as="geometry"/>
                </mxCell>
                <mxCell id="13" value="" style="strokeColor=#dddddd;shadow=1;strokeWidth=1;rounded=1;absoluteArcSize=1;arcSize=2;" parent="1" vertex="1">
                    <mxGeometry x="960" y="370" width="160" height="60" as="geometry"/>
                </mxCell>
                <mxCell id="14" value="MySQL&lt;br&gt;Compute Engine" style="dashed=0;connectable=0;html=1;fillColor=#5184F3;strokeColor=none;shape=mxgraph.gcp2.hexIcon;prIcon=compute_engine;part=1;labelPosition=right;verticalLabelPosition=middle;align=left;verticalAlign=middle;spacingLeft=5;fontColor=#999999;fontSize=12;" parent="13" vertex="1">
                    <mxGeometry y="0.5" width="44" height="39" relative="1" as="geometry">
                        <mxPoint x="5" y="-19.5" as="offset"/>
                    </mxGeometry>
                </mxCell>
                <mxCell id="35" style="edgeStyle=none;html=1;" edge="1" parent="1" source="24" target="34">
                    <mxGeometry relative="1" as="geometry"/>
                </mxCell>
                <mxCell id="24" value="" style="dashed=0;outlineConnect=0;html=1;align=center;labelPosition=center;verticalLabelPosition=bottom;verticalAlign=top;shape=mxgraph.weblogos.github" vertex="1" parent="1">
                    <mxGeometry x="-272.5" y="846.75" width="75" height="75" as="geometry"/>
                </mxCell>
                <mxCell id="32" style="edgeStyle=none;html=1;exitX=1;exitY=0.5;exitDx=0;exitDy=0;entryX=0.175;entryY=0.5;entryDx=0;entryDy=0;entryPerimeter=0;" edge="1" parent="1" source="30" target="25">
                    <mxGeometry relative="1" as="geometry"/>
                </mxCell>
                <mxCell id="30" value="Desktop and Mobile" style="strokeColor=#dddddd;shadow=1;strokeWidth=1;rounded=1;absoluteArcSize=1;arcSize=2;labelPosition=center;verticalLabelPosition=middle;align=center;verticalAlign=bottom;spacingLeft=0;fontColor=#999999;fontSize=12;whiteSpace=wrap;spacingBottom=2;" vertex="1" parent="1">
                    <mxGeometry x="-270" y="449.25" width="70" height="100" as="geometry"/>
                </mxCell>
                <mxCell id="31" value="" style="dashed=0;connectable=0;html=1;fillColor=#757575;strokeColor=none;shape=mxgraph.gcp2.desktop_and_mobile;part=1;" vertex="1" parent="30">
                    <mxGeometry x="0.5" width="50" height="33" relative="1" as="geometry">
                        <mxPoint x="-25" y="18.5" as="offset"/>
                    </mxGeometry>
                </mxCell>
                <mxCell id="91" style="edgeStyle=none;html=1;" edge="1" parent="1" source="59" target="57">
                    <mxGeometry relative="1" as="geometry"/>
                </mxCell>
                <mxCell id="59" value="" style="strokeColor=#dddddd;shadow=1;strokeWidth=1;rounded=1;absoluteArcSize=1;arcSize=2;" vertex="1" parent="1">
                    <mxGeometry x="320" y="620" width="140" height="60" as="geometry"/>
                </mxCell>
                <mxCell id="60" value="&lt;font color=&quot;#000000&quot;&gt;manager app&lt;/font&gt;&lt;br&gt;Cloud Storage" style="dashed=0;connectable=0;html=1;fillColor=#5184F3;strokeColor=none;shape=mxgraph.gcp2.hexIcon;prIcon=cloud_storage;part=1;labelPosition=right;verticalLabelPosition=middle;align=left;verticalAlign=middle;spacingLeft=5;fontColor=#999999;fontSize=12;" vertex="1" parent="59">
                    <mxGeometry y="0.5" width="44" height="39" relative="1" as="geometry">
                        <mxPoint x="5" y="-19.5" as="offset"/>
                    </mxGeometry>
                </mxCell>
                <mxCell id="88" style="edgeStyle=none;html=1;entryX=0.175;entryY=0.5;entryDx=0;entryDy=0;entryPerimeter=0;" edge="1" parent="1" source="86" target="61">
                    <mxGeometry relative="1" as="geometry"/>
                </mxCell>
                <mxCell id="86" value="Desktop" style="strokeColor=#dddddd;shadow=1;strokeWidth=1;rounded=1;absoluteArcSize=1;arcSize=2;labelPosition=center;verticalLabelPosition=middle;align=center;verticalAlign=bottom;spacingLeft=0;fontColor=#999999;fontSize=12;whiteSpace=wrap;spacingBottom=2;" vertex="1" parent="1">
                    <mxGeometry x="-267.5" y="606.75" width="70" height="85" as="geometry"/>
                </mxCell>
                <mxCell id="87" value="" style="dashed=0;connectable=0;html=1;fillColor=#757575;strokeColor=none;shape=mxgraph.gcp2.desktop;part=1;" vertex="1" parent="86">
                    <mxGeometry x="0.5" width="50" height="45" relative="1" as="geometry">
                        <mxPoint x="-25" y="12.5" as="offset"/>
                    </mxGeometry>
                </mxCell>
                <mxCell id="90" style="edgeStyle=none;html=1;entryX=0;entryY=0.5;entryDx=0;entryDy=0;" edge="1" parent="1" source="61" target="59">
                    <mxGeometry relative="1" as="geometry"/>
                </mxCell>
                <mxCell id="105" style="edgeStyle=orthogonalEdgeStyle;html=1;entryX=0.5;entryY=1;entryDx=0;entryDy=0;strokeColor=#009900;" edge="1" parent="1" source="54" target="59">
                    <mxGeometry relative="1" as="geometry"/>
                </mxCell>
                <mxCell id="109" value="&lt;font style=&quot;font-size: 18px&quot;&gt;admin&lt;/font&gt;" style="text;html=1;align=center;verticalAlign=middle;resizable=0;points=[];autosize=1;strokeColor=none;" vertex="1" parent="1">
                    <mxGeometry x="-260" y="710" width="60" height="20" as="geometry"/>
                </mxCell>
            </root>
        </mxGraphModel>
    </diagram>
</mxfile>